# xmcd
#
# Track frame offsets: 
#        182
#        9307
#        19250
#        34067
#        44907
#        55982
#        66732
#        80582
#        91987
#        103452
#        116067
#        127005
#        142500
#        157497
#        168475
#        182872
#        194575
#        209865
#        219712
#        231425
#        244172
#        258205
#        281007
#        292870
#        304187
#
# Disc length: 4215 seconds
#
# Revision: 2
# Processed by: cddbd v1.5.2PL0 Copyright (c) Steve Scherf et al.
# Submitted via: ExactAudioCopyFreeDBPlugin 1.0
#
DISCID=92107519
DTITLE=Diverse - When Your Lover Has Gone - 25 Blues and Soul Hits
DYEAR=1900
DGENRE=Blues
TTITLE0=When Your Lover Has Gone - Billie Holiday
TTITLE1=Dimples - John Lee Hooker
TTITLE2=Baby Please Don't Go - Muddy Waters
TTITLE3=Who's Been Talkin'- Howlin'Wolf
TTITLE4=Catfish Blues - B.B. King
TTITLE5=Aint Nobody's Business - Billie Holiday
TTITLE6=Hand In Hand - Elmore James
TTITLE7=Born Blind - Sonny Boy Williamson
TTITLE8=Boogie Chillum - John Lee Hooker
TTITLE9=Trainfare Blues - Muddy Waters
TTITLE10=Wang Dang Doodle - Howlin'Wolf
TTITLE11=Easy To Remember - Billie Holiday
TTITLE12=B.B. Boogie - B.B. King
TTITLE13=Coming Home - Elmore James
TTITLE14=Poor Howard Green Corn - Leadbelly
TTITLE15=Settin' Here Drinkin' - Muddy Waters
TTITLE16=Tupelo - John Lee Hooker
TTITLE17=Down In The Bottom - Howlin' Wolf
TTITLE18=My Babe - Little Walter
TTITLE19=Don't Explain - Billie Holiday
TTITLE20=Don't Lose Your Eye - Sonny Boy Williamson
TTITLE21=Everyday I Have The Blues - B.B. King
TTITLE22=You Gonna Miss Me - Muddy Waters
TTITLE23=Look On Yonder Wall - Elmore James
TTITLE24=Drug Store Woman - John Lee Hooker
EXTD=
EXTT0=
EXTT1=
EXTT2=
EXTT3=
EXTT4=
EXTT5=
EXTT6=
EXTT7=
EXTT8=
EXTT9=
EXTT10=
EXTT11=
EXTT12=
EXTT13=
EXTT14=
EXTT15=
EXTT16=
EXTT17=
EXTT18=
EXTT19=
EXTT20=
EXTT21=
EXTT22=
EXTT23=
EXTT24=
PLAYORDER=
